<!-- <?xml version="1.0" encoding="UTF-8"?>
<svg width="20pt" height="20pt" version="1" viewBox="0 0 700 700" fill="currentColor" xmlns="http://www.w3.org/2000/svg">
 <path d="m450 0h-199.99c-26.512 0.03125-51.926 10.578-70.672 29.324-18.746 18.746-29.293 44.16-29.324 70.672v439.98c0 5.0156 1.8867 9.8516 5.2852 13.539 3.3984 3.6914 8.0625 5.9727 13.059 6.3867 5 0.41406 9.9727-1.0664 13.934-4.1445l167.71-130.44 167.71 130.43v0.003907c3.9609 3.0781 8.9336 4.5586 13.934 4.1445 4.9961-0.41406 9.6602-2.6953 13.059-6.3867 3.3984-3.6875 5.2852-8.5234 5.2852-13.539v-439.98c-0.03125-26.512-10.578-51.926-29.324-70.672-18.746-18.746-44.16-29.293-70.672-29.324zm59.996 499.08-147.71-114.88h0.003906c-3.5117-2.7305-7.832-4.2148-12.281-4.2148s-8.7695 1.4844-12.281 4.2148l-147.71 114.88v-399.09c0-15.91 6.3242-31.172 17.574-42.426 11.254-11.25 26.512-17.57 42.426-17.57h199.99c15.914 0 31.172 6.3203 42.426 17.57 11.25 11.254 17.574 26.516 17.574 42.426z"/>
</svg> -->
<svg style="color: blue" xmlns="http://www.w3.org/2000/svg" width="16" height="16" fill="currentColor" class="bi bi-bookmark-fill" viewBox="0 0 16 16"> <path d="M2 2v13.5a.5.5 0 0 0 .74.439L8 13.069l5.26 2.87A.5.5 0 0 0 14 15.5V2a2 2 0 0 0-2-2H4a2 2 0 0 0-2 2z" ></path> </svg>